<?xml version="1.0" encoding="UTF-8" standalone="no"?>
<!-- Generator: Adobe Illustrator 19.0.0, SVG Export Plug-In . SVG Version: 6.00 Build 0)  -->

<svg
   xmlns:dc="http://purl.org/dc/elements/1.1/"
   xmlns:cc="http://creativecommons.org/ns#"
   xmlns:rdf="http://www.w3.org/1999/02/22-rdf-syntax-ns#"
   xmlns:svg="http://www.w3.org/2000/svg"
   xmlns="http://www.w3.org/2000/svg"
   xmlns:sodipodi="http://sodipodi.sourceforge.net/DTD/sodipodi-0.dtd"
   xmlns:inkscape="http://www.inkscape.org/namespaces/inkscape"
   version="1.1"
   id="Capa_1"
   x="0px"
   y="0px"
   viewBox="0 0 2812 712"
   xml:space="preserve"
   sodipodi:docname="link.svg"
   width="2812"
   height="712"
   inkscape:version="0.92.1 r15371"><metadata
     id="metadata52"><rdf:RDF><cc:Work
         rdf:about=""><dc:format>image/svg+xml</dc:format><dc:type
           rdf:resource="http://purl.org/dc/dcmitype/StillImage" /><dc:title></dc:title></cc:Work></rdf:RDF></metadata><defs
     id="defs50" /><sodipodi:namedview
     pagecolor="#ffffff"
     bordercolor="#666666"
     borderopacity="1"
     objecttolerance="10"
     gridtolerance="10"
     guidetolerance="10"
     inkscape:pageopacity="0"
     inkscape:pageshadow="2"
     inkscape:window-width="1920"
     inkscape:window-height="1017"
     id="namedview48"
     showgrid="false"
     borderlayer="true"
     inkscape:zoom="0.20727539"
     inkscape:cx="1346.2468"
     inkscape:cy="671.67648"
     inkscape:window-x="-8"
     inkscape:window-y="-8"
     inkscape:window-maximized="1"
     inkscape:current-layer="Capa_1" /><linearGradient
     id="SVGID_1_"
     gradientUnits="userSpaceOnUse"
     x1="256"
     y1="489.99371"
     x2="256"
     y2="26.005899"
     gradientTransform="matrix(1,0,0,-1,38,623.9998)"><stop
       offset="0"
       style="stop-color:#2AF598"
       id="stop10" /><stop
       offset="1"
       style="stop-color:#009EFD"
       id="stop12" /></linearGradient><path
     style="fill:url(#SVGID_1_)"
     d="m 515.111,168.819 c -27.588,-27.541 -60.474,-39.086 -95.107,-33.4 -29.148,4.791 -59.249,21.992 -87.048,49.745 l -58.163,58.068 c -9.388,9.373 -17.575,19.011 -24.492,28.78 -34.244,0.393 -69.559,17.892 -102.873,51.15 L 89.264,381.23 C 55.727,414.711 38,450.698 38,485.298 c 0,28.566 11.739,54.77 34.892,77.883 23.007,22.969 49.697,34.815 78.017,34.813 5.637,0 11.342,-0.47 17.092,-1.414 29.149,-4.791 59.251,-21.992 87.051,-49.744 l 58.164,-58.068 c 9.387,-9.372 17.573,-19.01 24.49,-28.78 34.241,-0.398 69.558,-17.894 102.872,-51.153 l 58.163,-58.068 C 532.274,317.287 550,281.301 550,246.7 c 0,-28.565 -11.738,-54.769 -34.889,-77.881 z m -44.633,153.641 -58.163,58.068 c -17.407,17.379 -35.308,29.322 -52.405,35.217 1.058,-3.563 1.935,-7.119 2.625,-10.658 6.498,-33.317 -3.083,-65.307 -27.708,-92.51 l -29.654,26.844 c 39.636,43.787 10.883,89.989 -20.219,121.038 l -58.164,58.068 c -21.851,21.813 -44.423,35.155 -65.276,38.582 -22.002,3.615 -41.751,-3.656 -60.362,-22.237 C 85.789,519.536 78,502.857 78,485.298 c 0,-30.004 21.493,-57.759 39.524,-75.759 l 58.165,-58.068 c 17.402,-17.374 35.302,-29.316 52.396,-35.213 -1.058,3.562 -1.935,7.114 -2.625,10.651 -6.504,33.319 3.079,65.311 27.714,92.516 l 29.65,-26.85 c -39.638,-43.771 -10.877,-89.98 20.229,-121.036 l 58.163,-58.068 c 21.849,-21.813 44.42,-35.154 65.272,-38.581 22.008,-3.614 41.75,3.658 60.359,22.236 15.364,15.336 23.153,32.015 23.153,49.574 0,30.004 -21.492,57.759 -39.522,75.76 z"
     id="path15"
     inkscape:connector-curvature="0" /><g
     id="g17"
     transform="translate(0,200)" /><g
     id="g19"
     transform="translate(0,200)" /><g
     id="g21"
     transform="translate(0,200)" /><g
     id="g23"
     transform="translate(0,200)" /><g
     id="g25"
     transform="translate(0,200)" /><g
     id="g27"
     transform="translate(0,200)" /><g
     id="g29"
     transform="translate(0,200)" /><g
     id="g31"
     transform="translate(0,200)" /><g
     id="g33"
     transform="translate(0,200)" /><g
     id="g35"
     transform="translate(0,200)" /><g
     id="g37"
     transform="translate(0,200)" /><g
     id="g39"
     transform="translate(0,200)" /><g
     id="g41"
     transform="translate(0,200)" /><g
     id="g43"
     transform="translate(0,200)" /><g
     id="g45"
     transform="translate(0,200)" /><text
     xml:space="preserve"
     style="font-style:normal;font-weight:normal;font-size:40px;line-height:1.25;font-family:sans-serif;letter-spacing:0px;word-spacing:0px;fill:#ffffff;fill-opacity:1;stroke:none"
     x="573.12689"
     y="477.48816"
     id="text3726"><tspan
       sodipodi:role="line"
       id="tspan3724"
       x="573.12689"
       y="477.48816"
       style="font-size:325.33334351px;fill:#000000">Project Cyrus</tspan></text>
<flowRoot
     xml:space="preserve"
     id="flowRoot3728"
     style="font-style:normal;font-weight:normal;font-size:40px;line-height:1.25;font-family:sans-serif;letter-spacing:0px;word-spacing:0px;fill:#000000;fill-opacity:1;stroke:none"
     transform="translate(0,200)"><flowRegion
       id="flowRegion3730"><rect
         id="rect3732"
         width="69.934441"
         height="92.10878"
         x="562.88696"
         y="148.68204" /></flowRegion><flowPara
       id="flowPara3734"></flowPara></flowRoot><flowRoot
     xml:space="preserve"
     id="flowRoot3736"
     style="font-style:normal;font-weight:normal;font-size:40px;line-height:1.25;font-family:sans-serif;letter-spacing:0px;word-spacing:0px;fill:#000000;fill-opacity:1;stroke:none"
     transform="translate(0,200)"><flowRegion
       id="flowRegion3738"><rect
         id="rect3740"
         width="35.82008"
         height="83.580185"
         x="670.34723"
         y="59.984695" /></flowRegion><flowPara
       id="flowPara3742"></flowPara></flowRoot></svg>